<svg width="250" height="250" viewBox="0 0 250 250" fill="none" xmlns="http://www.w3.org/2000/svg">
<circle opacity="0.12" cx="125" cy="125" r="125" fill="#7878B3"/>
<circle opacity="0.12" cx="125" cy="125" r="68.0693" fill="#7878B3"/>
<path fill-rule="evenodd" clip-rule="evenodd" d="M80.8651 57.8506C78.7574 55.3766 77.3309 52.3446 77.5693 48.9472C78.2561 39.1584 91.8824 41.3119 94.533 46.2524C97.1836 51.1929 96.8687 63.725 93.443 64.6081C92.0769 64.9602 89.1666 64.0976 86.2045 62.3123L88.0637 75.4654H77.0859L80.8651 57.8506Z" fill="#B28B67"/>
<path fill-rule="evenodd" clip-rule="evenodd" d="M99.3964 39.4034C99.1691 38.6043 98.5576 37.9201 97.7336 37.7172C97.5337 37.6679 97.3274 37.648 97.1217 37.6563C97.048 37.6593 97.0273 37.6805 96.9928 37.629C96.9673 37.5907 96.9667 37.4973 96.9562 37.4524C96.9234 37.3126 96.8825 37.1746 96.8319 37.0402C96.6595 36.5817 96.3698 36.176 96.0205 35.8341C95.3671 35.1947 94.4844 34.7533 93.5672 34.6735C93.0652 34.6298 92.5669 34.7114 92.0924 34.8747C91.8467 34.9592 91.6084 35.0645 91.3764 35.1808C91.3065 35.2158 91.0799 35.3874 91.0097 35.3763C90.9323 35.364 90.7767 35.1716 90.7137 35.1233C89.9355 34.5262 88.9745 34.2915 88.0051 34.2985C86.911 34.3067 85.8574 34.3614 84.9449 35.0284C84.7517 35.1696 84.5678 35.3242 84.3926 35.487C84.3004 35.5727 84.211 35.6616 84.1258 35.7542C84.0744 35.8101 84.0243 35.8672 83.9762 35.9259C83.8944 36.0255 83.9075 36.0582 83.793 35.9887C83.3539 35.7219 82.845 35.5971 82.3324 35.6601C82.028 35.6975 81.7319 35.7889 81.4507 35.9092C81.355 35.9501 81.1334 36.1134 81.0313 36.115C80.9301 36.1166 80.7116 35.9652 80.6073 35.9267C80.0442 35.7188 79.4371 35.6676 78.8452 35.7636C78.2346 35.8628 77.6348 36.1064 77.1174 36.443C76.8686 36.605 76.6515 36.7844 76.4771 37.0252C76.4018 37.1292 76.3338 37.2391 76.2484 37.3355C76.1985 37.392 76.0995 37.4499 76.0727 37.5213C76.0888 37.4785 75.4049 37.2149 75.3404 37.1981C74.9966 37.1083 74.6466 37.1265 74.3099 37.2373C73.6769 37.4456 73.1325 37.9128 72.6851 38.3917C72.4553 38.6377 72.2542 38.9097 72.0835 39.1994C72.0017 39.3382 71.9269 39.4809 71.8584 39.6267C71.8253 39.6973 71.8033 39.7857 71.7596 39.8493C71.7033 39.9313 71.6654 39.9328 71.5634 39.9686C71.0453 40.1501 70.5731 40.4573 70.2134 40.8724C69.8497 41.2924 69.6136 41.8096 69.5147 42.3542C69.5088 42.3863 69.5054 42.5192 69.4866 42.5366C69.4608 42.5605 69.3566 42.5499 69.3172 42.5546C69.1808 42.5706 69.0452 42.5944 68.9115 42.6261C68.6651 42.6844 68.4252 42.7702 68.1982 42.8825C67.3136 43.3202 66.681 44.1408 66.3713 45.0641C66.0465 46.0331 66.0522 47.1433 66.4405 48.0942C66.5032 48.2478 66.5779 48.3969 66.6655 48.5379C66.7193 48.6245 66.7367 48.6247 66.7018 48.7155C66.6628 48.8166 66.5916 48.9148 66.5454 49.0135C66.3945 49.3357 66.289 49.6775 66.2223 50.0266C66.113 50.5991 66.0588 51.2008 66.1667 51.7778C66.2167 52.0457 66.304 52.3075 66.4371 52.5461C66.505 52.6678 66.5844 52.7832 66.6741 52.8899C66.7207 52.9453 66.7701 52.9983 66.8218 53.049C66.8514 53.0779 66.8902 53.1033 66.9153 53.1356C66.9767 53.2145 66.9896 53.1496 66.958 53.2655C66.9137 53.4274 66.8134 53.5872 66.7519 53.7448C66.6886 53.9072 66.6314 54.0718 66.579 54.238C66.473 54.5746 66.3833 54.9174 66.3273 55.266C66.2196 55.9353 66.2385 56.6484 66.5551 57.2627C66.6905 57.5254 66.8847 57.7559 67.1202 57.9352C67.2355 58.0229 67.3604 58.0985 67.4913 58.1606C67.5586 58.1926 67.6446 58.2063 67.6753 58.2714C67.7083 58.3414 67.6593 58.4804 67.6481 58.5586C67.5507 59.2394 67.5019 59.9541 67.7043 60.6212C67.8907 61.2357 68.301 61.7782 68.8338 62.1374C69.8674 62.8341 71.2606 62.7948 72.3466 62.237C72.6297 62.0916 72.8945 61.9111 73.1308 61.6981C73.7324 62.508 74.9704 62.4824 75.8496 62.2516C76.945 61.9641 77.824 61.2024 78.3304 60.2016C79.0229 61.0446 80.4762 60.7711 80.9564 59.8566C81.0739 59.6328 81.1436 59.3861 81.178 59.1365C81.196 59.0052 81.1845 58.8728 81.1981 58.7426C81.2154 58.5766 81.3262 58.4154 81.3899 58.2549C81.514 57.9425 81.5911 57.6198 81.5944 57.2828C81.5961 57.1068 81.5738 56.9354 81.5571 56.7608C81.542 56.6037 81.5856 56.4574 81.6104 56.3023C81.3294 56.3486 80.9872 56.2728 80.7225 56.1913C80.4627 56.1114 80.2194 55.9009 80.0361 55.7086C79.6104 55.2621 79.3504 54.6768 79.1725 54.0942C78.7821 52.8156 78.9422 51.2816 80.2282 50.5799C80.8273 50.253 82.6221 50.2541 83.3356 50.4157C84.0859 50.5855 84.9364 52.241 84.9783 52.3966C85.0042 52.4929 84.9912 52.6121 85.0796 52.6763C85.2741 52.8174 85.5947 52.5725 85.7381 52.4517C85.9856 52.2431 86.1621 51.9656 86.315 51.6843C86.6481 51.0716 86.9167 50.4144 87.1064 49.7435C87.2526 49.2263 87.3461 48.693 87.5373 48.1889C87.7275 47.6874 88.0273 47.2391 88.4935 46.955C89.0007 46.646 89.582 46.4832 90.1388 46.2889C90.6906 46.0965 91.233 45.8612 91.6608 45.4528C91.7548 45.3629 91.8462 45.2675 91.9219 45.1618C91.9817 45.0783 92.0407 44.9185 92.1318 44.8656C92.2734 44.7832 92.48 44.9973 92.6024 45.0751C93.2064 45.4587 93.7103 45.9937 94.1167 46.5781C94.5208 47.1594 94.8525 47.7187 95.1219 48.3677C95.3218 48.8491 95.4466 49.4656 95.7981 49.8601C95.9551 50.0362 97.1217 50.1428 97.4996 49.989C97.8775 49.8352 98.301 49.4359 98.4278 49.1856C98.5577 48.9295 98.5887 48.6481 98.5332 48.3677C98.5006 48.2027 98.434 48.0486 98.3975 47.8866C98.3668 47.7505 98.339 47.6218 98.2727 47.4971C98.1471 47.2609 97.9326 47.091 97.6739 47.02C97.9432 46.7718 98.1662 46.4749 98.3206 46.1429C98.481 45.7981 98.6169 45.3787 98.6555 45.0002C98.6868 44.6928 98.6384 44.3743 98.4702 44.1101C98.2936 43.833 97.9808 43.6522 97.7102 43.4793C98.1236 43.1559 98.4774 42.7626 98.7682 42.3271C99.3338 41.4803 99.6836 40.4129 99.3964 39.4034Z" fill="#2E2E4F"/>
<path fill-rule="evenodd" clip-rule="evenodd" d="M73.4608 113.317L95.4538 171.512L110.869 214.405H119.659L98.4691 113.317L73.4608 113.317Z" fill="#2E2E4F"/>
<path fill-rule="evenodd" clip-rule="evenodd" d="M68.0252 113.317C67.7861 133.285 67.959 160.169 67.402 161.413C67.0306 162.243 55.4804 171.698 32.7513 189.777L37.2819 197.481C64.2666 180.079 78.4488 170.219 79.8284 167.9C81.8978 164.423 92.2944 132.42 97.7035 113.317H68.0252Z" fill="#585886"/>
<path fill-rule="evenodd" clip-rule="evenodd" d="M24.7805 194.961L32.4328 189.137L38.6072 196.495C39.0821 202.043 40.9188 208.264 44.1171 215.159L42.7156 216.335L31.5429 203.02L28.4215 197.877L27.7207 198.465L24.7805 194.961Z" fill="#2E2E4F"/>
<path fill-rule="evenodd" clip-rule="evenodd" d="M110.054 222.638L110.511 213.033H120.117C124.671 216.235 130.618 218.827 137.956 220.809V222.638H120.574L114.628 221.724V222.638H110.054Z" fill="#2E2E4F"/>
<path fill-rule="evenodd" clip-rule="evenodd" d="M112.231 107.531L126.822 118.245C130.779 119.313 134.085 120.642 136.741 122.231C137.368 122.803 138.126 123.96 135.525 123.76C132.924 123.56 130.179 123.466 129.82 124.354C129.461 125.241 131.035 126.302 130.309 127.499C129.826 128.297 127.541 126.296 123.455 121.496L109.006 115.504L112.231 107.531ZM56.2109 107.901L65.7696 107.939C59.8675 126.991 56.6813 137.101 56.2109 138.267C55.1525 140.89 57.3922 144.884 58.35 147.031C55.2305 148.427 55.5629 143.257 51.6276 145.088C48.0357 146.759 45.3034 149.787 41.1534 147.227C40.6432 146.912 40.0841 145.727 41.435 144.8C44.8005 142.493 49.6504 138.454 50.3057 137.124C51.1993 135.311 53.1677 125.57 56.2109 107.901Z" fill="#B28B67"/>
<path fill-rule="evenodd" clip-rule="evenodd" d="M83.3751 67.7917L87.3304 67.1133C102.006 79.7906 108.033 104.145 126.022 117.047L121.692 122.414C90.4856 118.55 82.7509 88.843 83.3751 67.7917Z" fill="#2E2E4F"/>
<path fill-rule="evenodd" clip-rule="evenodd" d="M66.1331 117.498C81.9923 117.498 93.658 117.498 101.13 117.498C102.729 117.498 102.428 115.188 102.197 114.023C99.5289 100.575 89.114 86.0787 89.114 66.9357L79.0191 65.3528C70.6694 78.7816 67.7819 95.3152 66.1331 117.498Z" fill="#DCDDF5"/>
<path fill-rule="evenodd" clip-rule="evenodd" d="M66.4143 78.5527C64.9482 78.1313 63.7871 77.1483 62.9312 75.6039C59.2415 68.9462 60.574 65.2807 64.5171 64.0758C68.4602 62.8709 71.9766 65.3528 78.259 65.3528C78.6007 65.3528 78.9137 65.3742 79.1979 65.417L82.3581 65.5974C91.4251 96.3264 93.9257 116.828 89.86 127.103H62.3145C60.6825 130.909 59.1208 134.111 57.6293 136.709H50.1237C49.4173 113.869 54.8475 94.4836 66.4143 78.5527Z" fill="#7878B3"/>
<path fill-rule="evenodd" clip-rule="evenodd" d="M68.3127 111.321C69.179 118.57 70.5871 123.83 72.5368 127.103H62.3145C64.2182 122.664 66.2176 117.403 68.3127 111.321H68.3127Z" fill="black" fill-opacity="0.1"/>
<path fill-rule="evenodd" clip-rule="evenodd" d="M163.76 56.0962C161.652 53.6222 160.226 50.5902 160.464 47.1929C161.151 37.4041 174.777 39.5575 177.428 44.498C180.078 49.4386 179.763 61.9707 176.338 62.8537C174.972 63.2058 172.061 62.3432 169.099 60.5579L170.958 73.711H159.981L163.76 56.0962Z" fill="#B28B67"/>
<path fill-rule="evenodd" clip-rule="evenodd" d="M172.586 45.2145C171.097 46.0479 170.036 47.6093 168.76 49.6575C168.449 49.5354 168.111 49.4683 167.757 49.4683C166.241 49.4683 165.012 50.697 165.012 52.2127C165.012 52.9822 165.329 53.6777 165.839 54.176C165.204 55.0724 164.492 56.0087 163.677 56.9749C160.633 55.1491 158.37 49.8275 161.276 44.6903C163.776 34.4 177.942 40.7871 180.668 39.0516C181.264 42.7857 179.342 45.7967 172.586 45.2145Z" fill="#585886"/>
<path fill-rule="evenodd" clip-rule="evenodd" d="M159.539 113.421L181.989 170.244L197.047 218.283H202.993L179.973 113.421L159.539 113.421Z" fill="#997659"/>
<path fill-rule="evenodd" clip-rule="evenodd" d="M155.018 113.421C154.779 133.389 151.292 160.272 150.735 161.517C150.364 162.347 137.545 172.899 112.277 193.174L116.372 197.557C146.186 180.173 161.782 170.323 163.162 168.004C165.231 164.526 171.968 132.524 177.378 113.421H155.018Z" fill="#B28B67"/>
<path fill-rule="evenodd" clip-rule="evenodd" d="M111.729 191.711C110.354 192.197 109.406 192.658 108.887 193.094C108.255 193.624 107.421 194.503 106.386 195.731C107.001 196.464 112.529 203.052 122.969 215.494C125.098 214.583 125.766 213.517 124.972 212.297C124.179 211.077 123.53 210.055 123.025 209.232L119.413 196.61C119.343 196.367 119.09 196.227 118.847 196.296C118.843 196.298 118.839 196.299 118.835 196.3L116.907 196.911C115.569 196.288 114.632 195.656 114.095 195.016C113.658 194.496 113.265 193.601 112.916 192.331L112.916 192.331C112.782 191.844 112.279 191.558 111.792 191.692C111.771 191.697 111.75 191.704 111.729 191.711Z" fill="#585886"/>
<path fill-rule="evenodd" clip-rule="evenodd" d="M194.612 216.065C194.1 217.431 193.844 218.453 193.844 219.131C193.844 219.956 193.982 221.16 194.257 222.742C195.213 222.742 203.813 222.742 220.055 222.742C220.726 220.526 220.339 219.329 218.894 219.152C217.45 218.976 216.25 218.816 215.295 218.674L203.304 213.328C203.073 213.225 202.802 213.329 202.7 213.56C202.698 213.564 202.696 213.568 202.694 213.572L201.924 215.441C200.587 216.065 199.5 216.377 198.664 216.377C197.985 216.377 197.047 216.103 195.85 215.554L195.85 215.554C195.391 215.344 194.848 215.545 194.637 216.005C194.628 216.024 194.62 216.044 194.612 216.065Z" fill="#585886"/>
<path fill-rule="evenodd" clip-rule="evenodd" d="M174.633 213.335L202.903 210.266L181.952 113.421H156.631L174.633 213.335Z" fill="#585886"/>
<path fill-rule="evenodd" clip-rule="evenodd" d="M118.125 186.104L136.668 208.053C156.199 186.721 167.586 172.802 170.829 166.296C174.071 159.79 176.986 142.165 179.573 113.421H151.066C149.653 138.708 148.701 151.941 148.209 153.117C147.717 154.294 137.689 165.29 118.125 186.104Z" fill="#7878B3"/>
<path fill-rule="evenodd" clip-rule="evenodd" d="M200.808 107.892L214.251 120.921C218.162 122.579 221.367 124.409 223.865 126.412C224.427 127.086 225.039 128.376 222.395 127.799C219.752 127.221 216.946 126.732 216.449 127.586C215.952 128.44 217.416 129.749 216.498 130.867C215.886 131.612 213.827 129.242 210.322 123.756L196.343 115.568L200.808 107.892ZM135.073 96.0997L145.464 96.1385C137.55 121.615 133.349 134.953 132.861 136.155C131.763 138.859 134.086 142.977 135.08 145.189C131.844 146.628 132.189 141.3 128.106 143.187C124.379 144.909 121.545 148.03 117.239 145.391C116.71 145.066 116.13 143.845 117.532 142.89C121.023 140.511 126.055 136.348 126.734 134.978C127.662 133.109 130.441 120.15 135.073 96.0997Z" fill="#B28B67"/>
<path fill-rule="evenodd" clip-rule="evenodd" d="M166.737 66.8122L170.84 66.1129C177.305 88.8158 210.517 104.291 212.556 112.778C213.304 115.89 211.049 117.464 212.214 118.412L206.88 122.291C205.977 121.244 204.049 123.159 200.024 121.819C195.999 120.48 166.737 93.6943 166.737 66.8122Z" fill="#585886"/>
<path fill-rule="evenodd" clip-rule="evenodd" d="M173.64 69.8305C173.166 99.8873 190.654 107.554 186.759 119.612C183.542 129.569 152.753 140.273 147.425 130.512C145.269 126.562 144.29 121.783 144.179 116.589C142.818 120.58 141.741 124.015 140.949 126.896C139.582 131.865 134.284 132.655 134.284 134.57L127.303 132.655C127.777 130.055 124.486 128.788 125.368 122.978C129.322 96.9436 139.944 78.0723 157.234 66.3638L157.417 63.7659C157.489 62.7587 158.363 61.9993 159.371 62.0676L172.289 62.9651C173.297 63.0335 174.057 63.9075 173.987 64.9155C173.987 64.9161 173.987 64.9166 173.985 64.9171L173.64 69.8305Z" fill="#2E2E4F"/>
</svg>
